<svg id="zava_blue" width="122" height="24" viewBox="0 0 122 24" fill="none" xmlns="http://www.w3.org/2000/svg">
<title>Zava</title>
<g clip-path="url(#clip0)">
<path fill-rule="evenodd" clip-rule="evenodd" d="M5 0C2.23858 0 0 2.23858 0 5V19C0 21.7614 2.23858 24 5 24H24V5C24 2.23858 21.7614 0 19 0H5ZM17 10.0007H14L14 7.00067C14 5.8961 13.1046 5.00067 12 5.00067C10.8954 5.00067 10 5.8961 10 7.00067L10 10.0007H7C5.89543 10.0007 5 10.8961 5 12.0007C5 13.1052 5.89543 14.0007 7 14.0007H10L10 17.0007C10 18.1052 10.8954 19.0007 12 19.0007C13.1046 19.0007 14 18.1052 14 17.0007V14.0007H17C18.1046 14.0007 19 13.1052 19 12.0007C19 10.8961 18.1046 10.0007 17 10.0007Z" fill="#0F62F4"></path>
<path fill-rule="evenodd" clip-rule="evenodd" d="M29 2.50061C29 1.1199 30.1193 0.000610352 31.5 0.000610352H43.5C44.4431 0.000610352 45.306 0.531358 45.7313 1.37311C46.1567 2.21486 46.0721 3.22435 45.5127 3.98361L36.4475 19.0006H43.5C44.8807 19.0006 46 20.1199 46 21.5006C46 22.8813 44.8807 24.0006 43.5 24.0006H31.5C30.5569 24.0006 29.694 23.4699 29.2687 22.6281C28.8434 21.7864 28.9279 20.7769 29.4874 20.0176L38.5525 5.00061H31.5C30.1193 5.00061 29 3.88132 29 2.50061Z" fill="#0F62F4"></path>
<path fill-rule="evenodd" clip-rule="evenodd" d="M62 0.000610352C62.9469 0.000610352 63.8126 0.535616 64.2361 1.38258L73.7361 20.3826C74.3535 21.6175 73.853 23.1192 72.618 23.7367C71.3831 24.3541 69.8814 23.8536 69.2639 22.6186L62 8.09078L54.7361 22.6186C54.1186 23.8536 52.6169 24.3541 51.382 23.7367C50.147 23.1192 49.6465 21.6175 50.2639 20.3826L59.7639 1.38258C60.1874 0.535616 61.0531 0.000610352 62 0.000610352Z" fill="#0F62F4"></path>
<path fill-rule="evenodd" clip-rule="evenodd" d="M86 24.0005C85.0531 24.0005 84.1874 23.4655 83.7639 22.6185L74.264 3.61852C73.6465 2.38357 74.147 0.881891 75.382 0.264418C76.6169 -0.353054 78.1186 0.147507 78.7361 1.38245L86 15.9103L93.2639 1.38245C93.8814 0.147508 95.3831 -0.353052 96.618 0.264419C97.853 0.881893 98.3535 2.38358 97.7361 3.61852L88.2361 22.6185C87.8126 23.4655 86.9469 24.0005 86 24.0005Z" fill="#0F62F4"></path>
<path fill-rule="evenodd" clip-rule="evenodd" d="M110 0.000610352C110.947 0.000610352 111.813 0.535616 112.236 1.38258L121.736 20.3826C122.354 21.6175 121.853 23.1192 120.618 23.7367C119.383 24.3541 117.881 23.8536 117.264 22.6186L110 8.09078L102.736 22.6186C102.119 23.8536 100.617 24.3541 99.382 23.7367C98.147 23.1192 97.6465 21.6175 98.2639 20.3826L107.764 1.38258C108.187 0.535616 109.053 0.000610352 110 0.000610352Z" fill="#0F62F4"></path>
</g>
<defs>
<clipPath id="clip0">
<rect width="122" height="24" fill="white"></rect>
</clipPath>
</defs>
</svg>